<mxfile host="app.diagrams.net" agent="Mozilla/5.0 (Windows NT 10.0; Win64; x64) AppleWebKit/537.36 (KHTML, like Gecko) Chrome/137.0.0.0 Safari/537.36" version="27.2.0">
  <diagram name="Sayfa -1" id="MS5gZfctHX_pVwG611Qf">
    <mxGraphModel dx="1226" dy="742" grid="1" gridSize="10" guides="1" tooltips="1" connect="1" arrows="1" fold="1" page="1" pageScale="1" pageWidth="827" pageHeight="1169" math="0" shadow="0">
      <root>
        <mxCell id="0" />
        <mxCell id="1" parent="0" />
        <mxCell id="LCMwUKCcIC5q0sRLXK8b-1" value="" style="rounded=1;whiteSpace=wrap;html=1;arcSize=18;fillColor=#f5f5f5;strokeColor=#666666;fontColor=#333333;" parent="1" vertex="1">
          <mxGeometry x="410" y="450" width="540" height="430" as="geometry" />
        </mxCell>
        <mxCell id="LCMwUKCcIC5q0sRLXK8b-2" value="&lt;font style=&quot;font-size: 16px;&quot;&gt;Leaderboard Spring boot App&lt;/font&gt;" style="text;html=1;align=center;verticalAlign=middle;whiteSpace=wrap;rounded=0;" parent="1" vertex="1">
          <mxGeometry x="800" y="560" width="140" height="100" as="geometry" />
        </mxCell>
        <mxCell id="LCMwUKCcIC5q0sRLXK8b-3" style="edgeStyle=orthogonalEdgeStyle;rounded=0;orthogonalLoop=1;jettySize=auto;html=1;" parent="1" source="LCMwUKCcIC5q0sRLXK8b-4" target="LCMwUKCcIC5q0sRLXK8b-7" edge="1">
          <mxGeometry relative="1" as="geometry" />
        </mxCell>
        <mxCell id="LCMwUKCcIC5q0sRLXK8b-4" value="" style="rounded=1;whiteSpace=wrap;html=1;" parent="1" vertex="1">
          <mxGeometry x="610" y="505" width="140" height="80" as="geometry" />
        </mxCell>
        <mxCell id="LCMwUKCcIC5q0sRLXK8b-5" value="Controller" style="text;html=1;align=center;verticalAlign=middle;whiteSpace=wrap;rounded=0;" parent="1" vertex="1">
          <mxGeometry x="650" y="530" width="60" height="30" as="geometry" />
        </mxCell>
        <mxCell id="LCMwUKCcIC5q0sRLXK8b-6" style="edgeStyle=orthogonalEdgeStyle;rounded=0;orthogonalLoop=1;jettySize=auto;html=1;entryX=0.5;entryY=0;entryDx=0;entryDy=0;" parent="1" source="LCMwUKCcIC5q0sRLXK8b-7" target="LCMwUKCcIC5q0sRLXK8b-33" edge="1">
          <mxGeometry relative="1" as="geometry" />
        </mxCell>
        <mxCell id="LCMwUKCcIC5q0sRLXK8b-7" value="Service" style="rounded=1;whiteSpace=wrap;html=1;" parent="1" vertex="1">
          <mxGeometry x="605" y="630" width="150" height="70" as="geometry" />
        </mxCell>
        <mxCell id="LCMwUKCcIC5q0sRLXK8b-8" style="edgeStyle=orthogonalEdgeStyle;rounded=0;orthogonalLoop=1;jettySize=auto;html=1;entryX=0.184;entryY=0.005;entryDx=0;entryDy=0;entryPerimeter=0;" parent="1" source="LCMwUKCcIC5q0sRLXK8b-7" target="LCMwUKCcIC5q0sRLXK8b-33" edge="1">
          <mxGeometry relative="1" as="geometry" />
        </mxCell>
        <mxCell id="LCMwUKCcIC5q0sRLXK8b-9" style="edgeStyle=orthogonalEdgeStyle;rounded=0;orthogonalLoop=1;jettySize=auto;html=1;entryX=0.831;entryY=0.023;entryDx=0;entryDy=0;entryPerimeter=0;" parent="1" source="LCMwUKCcIC5q0sRLXK8b-7" target="LCMwUKCcIC5q0sRLXK8b-33" edge="1">
          <mxGeometry relative="1" as="geometry" />
        </mxCell>
        <mxCell id="LCMwUKCcIC5q0sRLXK8b-10" value="" style="group" parent="1" vertex="1" connectable="0">
          <mxGeometry x="465" y="950" width="430" height="170" as="geometry" />
        </mxCell>
        <mxCell id="LCMwUKCcIC5q0sRLXK8b-11" value="" style="rounded=1;whiteSpace=wrap;html=1;fillColor=#b1ddf0;strokeColor=#10739e;" parent="LCMwUKCcIC5q0sRLXK8b-10" vertex="1">
          <mxGeometry width="430" height="170" as="geometry" />
        </mxCell>
        <mxCell id="LCMwUKCcIC5q0sRLXK8b-12" value="Docker" style="text;html=1;align=center;verticalAlign=middle;whiteSpace=wrap;rounded=0;" parent="LCMwUKCcIC5q0sRLXK8b-10" vertex="1">
          <mxGeometry x="360" width="70" height="50" as="geometry" />
        </mxCell>
        <mxCell id="LCMwUKCcIC5q0sRLXK8b-13" value="" style="group" parent="LCMwUKCcIC5q0sRLXK8b-10" vertex="1" connectable="0">
          <mxGeometry x="175" y="32.5" width="110" height="107.5" as="geometry" />
        </mxCell>
        <mxCell id="LCMwUKCcIC5q0sRLXK8b-14" value="" style="whiteSpace=wrap;html=1;aspect=fixed;fillColor=#d0cee2;strokeColor=#56517e;" parent="LCMwUKCcIC5q0sRLXK8b-13" vertex="1">
          <mxGeometry width="107.5" height="107.5" as="geometry" />
        </mxCell>
        <mxCell id="LCMwUKCcIC5q0sRLXK8b-15" style="edgeStyle=orthogonalEdgeStyle;rounded=0;orthogonalLoop=1;jettySize=auto;html=1;" parent="LCMwUKCcIC5q0sRLXK8b-13" source="LCMwUKCcIC5q0sRLXK8b-16" edge="1">
          <mxGeometry relative="1" as="geometry">
            <mxPoint x="-40" y="55.154829545454504" as="targetPoint" />
          </mxGeometry>
        </mxCell>
        <mxCell id="LCMwUKCcIC5q0sRLXK8b-16" value="Prometheus" style="text;html=1;align=center;verticalAlign=middle;whiteSpace=wrap;rounded=0;fillColor=#d0cee2;strokeColor=none;" parent="LCMwUKCcIC5q0sRLXK8b-13" vertex="1">
          <mxGeometry x="12.5" y="35.91477272727273" width="75" height="38.48011363636364" as="geometry" />
        </mxCell>
        <mxCell id="LCMwUKCcIC5q0sRLXK8b-17" value="" style="group;fillColor=#bac8d3;strokeColor=#23445d;" parent="LCMwUKCcIC5q0sRLXK8b-10" vertex="1" connectable="0">
          <mxGeometry x="20" y="32.5" width="110" height="107.5" as="geometry" />
        </mxCell>
        <mxCell id="LCMwUKCcIC5q0sRLXK8b-18" value="Grafana" style="text;html=1;align=center;verticalAlign=middle;whiteSpace=wrap;rounded=0;" parent="LCMwUKCcIC5q0sRLXK8b-17" vertex="1">
          <mxGeometry x="13.750000000000002" y="37.625" width="82.5" height="40.3125" as="geometry" />
        </mxCell>
        <mxCell id="LCMwUKCcIC5q0sRLXK8b-19" value="" style="group;movable=1;resizable=1;rotatable=1;deletable=1;editable=1;locked=0;connectable=1;" parent="LCMwUKCcIC5q0sRLXK8b-10" vertex="1" connectable="0">
          <mxGeometry x="300" y="32.5" width="70" height="115" as="geometry" />
        </mxCell>
        <mxCell id="LCMwUKCcIC5q0sRLXK8b-20" value="" style="shape=cylinder3;whiteSpace=wrap;html=1;boundedLbl=1;backgroundOutline=1;size=15;fillColor=#fad9d5;strokeColor=#ae4132;movable=0;resizable=0;rotatable=0;deletable=0;editable=0;locked=1;connectable=0;" parent="LCMwUKCcIC5q0sRLXK8b-19" vertex="1">
          <mxGeometry width="70" height="115" as="geometry" />
        </mxCell>
        <mxCell id="LCMwUKCcIC5q0sRLXK8b-21" value="Redis&lt;div&gt;Repository&lt;/div&gt;" style="text;html=1;align=center;verticalAlign=middle;whiteSpace=wrap;rounded=0;movable=0;resizable=0;rotatable=0;deletable=0;editable=0;locked=1;connectable=0;" parent="LCMwUKCcIC5q0sRLXK8b-19" vertex="1">
          <mxGeometry x="5" y="50" width="60" height="30" as="geometry" />
        </mxCell>
        <mxCell id="LCMwUKCcIC5q0sRLXK8b-22" style="edgeStyle=orthogonalEdgeStyle;rounded=0;orthogonalLoop=1;jettySize=auto;html=1;entryX=0.5;entryY=0;entryDx=0;entryDy=0;" parent="1" source="LCMwUKCcIC5q0sRLXK8b-23" target="LCMwUKCcIC5q0sRLXK8b-4" edge="1">
          <mxGeometry relative="1" as="geometry" />
        </mxCell>
        <mxCell id="LCMwUKCcIC5q0sRLXK8b-23" value="" style="rounded=0;whiteSpace=wrap;html=1;" parent="1" vertex="1">
          <mxGeometry x="520" y="410" width="320" height="60" as="geometry" />
        </mxCell>
        <mxCell id="LCMwUKCcIC5q0sRLXK8b-24" value="API Endpoints" style="text;html=1;align=center;verticalAlign=middle;whiteSpace=wrap;rounded=0;" parent="1" vertex="1">
          <mxGeometry x="650" y="425" width="60" height="30" as="geometry" />
        </mxCell>
        <mxCell id="LCMwUKCcIC5q0sRLXK8b-25" value="" style="group" parent="1" vertex="1" connectable="0">
          <mxGeometry x="575" y="130" width="210" height="130" as="geometry" />
        </mxCell>
        <mxCell id="LCMwUKCcIC5q0sRLXK8b-26" value="" style="shape=process;whiteSpace=wrap;html=1;backgroundOutline=1;fillColor=#fad7ac;strokeColor=#b46504;" parent="LCMwUKCcIC5q0sRLXK8b-25" vertex="1">
          <mxGeometry width="210" height="130" as="geometry" />
        </mxCell>
        <mxCell id="LCMwUKCcIC5q0sRLXK8b-27" value="K6" style="text;html=1;align=center;verticalAlign=middle;whiteSpace=wrap;rounded=0;" parent="LCMwUKCcIC5q0sRLXK8b-25" vertex="1">
          <mxGeometry x="52.5" y="32.5" width="105" height="65" as="geometry" />
        </mxCell>
        <mxCell id="LCMwUKCcIC5q0sRLXK8b-28" value="" style="endArrow=classic;html=1;rounded=0;exitX=0.5;exitY=1;exitDx=0;exitDy=0;entryX=0.5;entryY=0;entryDx=0;entryDy=0;" parent="1" source="LCMwUKCcIC5q0sRLXK8b-26" target="LCMwUKCcIC5q0sRLXK8b-23" edge="1">
          <mxGeometry relative="1" as="geometry">
            <mxPoint x="1010" y="260" as="sourcePoint" />
            <mxPoint x="690" y="320" as="targetPoint" />
            <Array as="points">
              <mxPoint x="680" y="245" />
              <mxPoint x="680" y="330" />
            </Array>
          </mxGeometry>
        </mxCell>
        <mxCell id="LCMwUKCcIC5q0sRLXK8b-29" value="HTTP REQUESTS" style="edgeLabel;resizable=0;html=1;;align=center;verticalAlign=middle;" parent="LCMwUKCcIC5q0sRLXK8b-28" connectable="0" vertex="1">
          <mxGeometry relative="1" as="geometry" />
        </mxCell>
        <mxCell id="LCMwUKCcIC5q0sRLXK8b-30" value="LOAD TEST" style="edgeLabel;resizable=0;html=1;;align=left;verticalAlign=bottom;" parent="LCMwUKCcIC5q0sRLXK8b-28" connectable="0" vertex="1">
          <mxGeometry x="-1" relative="1" as="geometry">
            <mxPoint x="-30" y="10" as="offset" />
          </mxGeometry>
        </mxCell>
        <mxCell id="LCMwUKCcIC5q0sRLXK8b-31" value="" style="group" parent="1" vertex="1" connectable="0">
          <mxGeometry x="460" y="740" width="440" height="120" as="geometry" />
        </mxCell>
        <mxCell id="LCMwUKCcIC5q0sRLXK8b-32" value="" style="group" parent="LCMwUKCcIC5q0sRLXK8b-31" vertex="1" connectable="0">
          <mxGeometry y="-1.25" width="440" height="121.25" as="geometry" />
        </mxCell>
        <mxCell id="LCMwUKCcIC5q0sRLXK8b-33" value="" style="rounded=1;whiteSpace=wrap;html=1;movable=1;resizable=1;rotatable=1;deletable=1;editable=1;locked=0;connectable=1;" parent="LCMwUKCcIC5q0sRLXK8b-32" vertex="1">
          <mxGeometry y="1.25" width="440" height="120" as="geometry" />
        </mxCell>
        <mxCell id="LCMwUKCcIC5q0sRLXK8b-34" value="" style="rounded=0;whiteSpace=wrap;html=1;fillColor=#fad9d5;strokeColor=#ae4132;movable=1;resizable=1;rotatable=1;deletable=1;editable=1;locked=0;connectable=1;" parent="LCMwUKCcIC5q0sRLXK8b-32" vertex="1">
          <mxGeometry x="310" y="30" width="120" height="60" as="geometry" />
        </mxCell>
        <mxCell id="LCMwUKCcIC5q0sRLXK8b-35" value="Redis&lt;br&gt;Repository Client" style="text;html=1;align=center;verticalAlign=middle;whiteSpace=wrap;rounded=0;movable=1;resizable=1;rotatable=1;deletable=1;editable=1;locked=0;connectable=1;" parent="LCMwUKCcIC5q0sRLXK8b-32" vertex="1">
          <mxGeometry x="340" y="46.25" width="60" height="30" as="geometry" />
        </mxCell>
        <mxCell id="LCMwUKCcIC5q0sRLXK8b-36" value="Micro-Meter" style="text;html=1;align=center;verticalAlign=middle;whiteSpace=wrap;rounded=0;" parent="LCMwUKCcIC5q0sRLXK8b-32" vertex="1">
          <mxGeometry x="350" y="6.247058823529414" width="70" height="22.941176470588236" as="geometry" />
        </mxCell>
        <mxCell id="LCMwUKCcIC5q0sRLXK8b-37" value="" style="endArrow=none;html=1;rounded=0;exitX=0.344;exitY=1;exitDx=0;exitDy=0;exitPerimeter=0;entryX=0.345;entryY=0.007;entryDx=0;entryDy=0;entryPerimeter=0;" parent="LCMwUKCcIC5q0sRLXK8b-32" source="LCMwUKCcIC5q0sRLXK8b-33" target="LCMwUKCcIC5q0sRLXK8b-33" edge="1">
          <mxGeometry width="50" height="50" relative="1" as="geometry">
            <mxPoint x="250" y="46.25" as="sourcePoint" />
            <mxPoint x="150" y="6.25" as="targetPoint" />
          </mxGeometry>
        </mxCell>
        <mxCell id="LCMwUKCcIC5q0sRLXK8b-38" value="" style="group;movable=1;resizable=1;rotatable=1;deletable=1;editable=1;locked=0;connectable=1;fillStyle=hatch;fillColor=none;rounded=0;" parent="LCMwUKCcIC5q0sRLXK8b-32" vertex="1" connectable="0">
          <mxGeometry x="190" y="10" width="60" height="100" as="geometry" />
        </mxCell>
        <mxCell id="LCMwUKCcIC5q0sRLXK8b-39" value="" style="shape=cylinder3;whiteSpace=wrap;html=1;boundedLbl=1;backgroundOutline=1;size=15;fillColor=#fad7ac;strokeColor=#b46504;movable=1;resizable=1;rotatable=1;deletable=1;editable=1;locked=0;connectable=1;" parent="LCMwUKCcIC5q0sRLXK8b-38" vertex="1">
          <mxGeometry y="2.1739130434782608" width="62.3076923076923" height="100" as="geometry" />
        </mxCell>
        <mxCell id="LCMwUKCcIC5q0sRLXK8b-40" value="Caffeine&lt;br&gt;&lt;div&gt;Repository&lt;/div&gt;" style="text;html=1;align=center;verticalAlign=middle;whiteSpace=wrap;rounded=0;movable=1;resizable=1;rotatable=1;deletable=1;editable=1;locked=0;connectable=1;" parent="LCMwUKCcIC5q0sRLXK8b-38" vertex="1">
          <mxGeometry x="4.615384615384615" y="39.13043478260869" width="55.38461538461538" height="26.086956521739133" as="geometry" />
        </mxCell>
        <mxCell id="LCMwUKCcIC5q0sRLXK8b-41" value="" style="group;movable=1;resizable=1;rotatable=1;deletable=1;editable=1;locked=0;connectable=1;fillStyle=hatch;fillColor=none;rounded=0;" parent="LCMwUKCcIC5q0sRLXK8b-32" vertex="1" connectable="0">
          <mxGeometry x="50" y="10" width="60" height="100" as="geometry" />
        </mxCell>
        <mxCell id="LCMwUKCcIC5q0sRLXK8b-42" value="" style="shape=cylinder3;whiteSpace=wrap;html=1;boundedLbl=1;backgroundOutline=1;size=15;fillColor=#bac8d3;strokeColor=#23445d;movable=1;resizable=1;rotatable=1;deletable=1;editable=1;locked=0;connectable=1;" parent="LCMwUKCcIC5q0sRLXK8b-41" vertex="1">
          <mxGeometry y="2.173913043478261" width="62.307692307692314" height="100" as="geometry" />
        </mxCell>
        <mxCell id="LCMwUKCcIC5q0sRLXK8b-43" value="Caffeine&lt;br&gt;&lt;div&gt;Repository&lt;/div&gt;" style="text;html=1;align=center;verticalAlign=middle;whiteSpace=wrap;rounded=0;movable=1;resizable=1;rotatable=1;deletable=1;editable=1;locked=0;connectable=1;" parent="LCMwUKCcIC5q0sRLXK8b-41" vertex="1">
          <mxGeometry x="4.615384615384616" y="39.13043478260871" width="55.38461538461539" height="26.086956521739133" as="geometry" />
        </mxCell>
        <mxCell id="LCMwUKCcIC5q0sRLXK8b-44" value="" style="endArrow=none;html=1;rounded=0;entryX=0.345;entryY=0.023;entryDx=0;entryDy=0;entryPerimeter=0;" parent="LCMwUKCcIC5q0sRLXK8b-32" edge="1">
          <mxGeometry width="50" height="50" relative="1" as="geometry">
            <mxPoint x="290" y="120" as="sourcePoint" />
            <mxPoint x="290" as="targetPoint" />
          </mxGeometry>
        </mxCell>
        <mxCell id="LCMwUKCcIC5q0sRLXK8b-45" style="edgeStyle=orthogonalEdgeStyle;rounded=0;orthogonalLoop=1;jettySize=auto;html=1;entryX=0.5;entryY=0;entryDx=0;entryDy=0;" parent="1" source="LCMwUKCcIC5q0sRLXK8b-34" target="LCMwUKCcIC5q0sRLXK8b-19" edge="1">
          <mxGeometry relative="1" as="geometry" />
        </mxCell>
        <mxCell id="LCMwUKCcIC5q0sRLXK8b-46" value="" style="endArrow=classic;html=1;rounded=0;entryX=0.78;entryY=-0.026;entryDx=0;entryDy=0;entryPerimeter=0;" parent="1" target="LCMwUKCcIC5q0sRLXK8b-23" edge="1">
          <mxGeometry width="50" height="50" relative="1" as="geometry">
            <mxPoint x="680" y="330" as="sourcePoint" />
            <mxPoint x="700" y="390" as="targetPoint" />
            <Array as="points">
              <mxPoint x="770" y="330" />
            </Array>
          </mxGeometry>
        </mxCell>
        <mxCell id="LCMwUKCcIC5q0sRLXK8b-47" value="" style="endArrow=classic;html=1;rounded=0;entryX=0.78;entryY=-0.026;entryDx=0;entryDy=0;entryPerimeter=0;" parent="1" edge="1">
          <mxGeometry width="50" height="50" relative="1" as="geometry">
            <mxPoint x="680" y="330" as="sourcePoint" />
            <mxPoint x="590" y="410" as="targetPoint" />
            <Array as="points">
              <mxPoint x="590" y="330" />
            </Array>
          </mxGeometry>
        </mxCell>
        <mxCell id="LCMwUKCcIC5q0sRLXK8b-48" style="edgeStyle=orthogonalEdgeStyle;rounded=0;orthogonalLoop=1;jettySize=auto;html=1;entryX=0.5;entryY=0;entryDx=0;entryDy=0;" parent="1" source="LCMwUKCcIC5q0sRLXK8b-33" target="LCMwUKCcIC5q0sRLXK8b-14" edge="1">
          <mxGeometry relative="1" as="geometry" />
        </mxCell>
        <mxCell id="LCMwUKCcIC5q0sRLXK8b-49" style="edgeStyle=orthogonalEdgeStyle;rounded=0;orthogonalLoop=1;jettySize=auto;html=1;entryX=1.021;entryY=0.524;entryDx=0;entryDy=0;entryPerimeter=0;" parent="1" source="LCMwUKCcIC5q0sRLXK8b-18" edge="1">
          <mxGeometry relative="1" as="geometry">
            <mxPoint x="433.9899999999998" y="1040.7600000000002" as="targetPoint" />
          </mxGeometry>
        </mxCell>
        <mxCell id="LCMwUKCcIC5q0sRLXK8b-50" value="Dashboard &lt;br&gt;in Browser" style="rounded=0;whiteSpace=wrap;html=1;" parent="1" vertex="1">
          <mxGeometry x="300" y="980" width="122.5" height="125" as="geometry" />
        </mxCell>
      </root>
    </mxGraphModel>
  </diagram>
</mxfile>
